<svg xmlns="http://www.w3.org/2000/svg" viewBox="0 0 512 512" width="512" height="512">
  <defs>
    <linearGradient id="bgGrad" x1="0%" y1="0%" x2="100%" y2="100%">
      <stop offset="0%" stop-color="#0a0d14"/>
      <stop offset="50%" stop-color="#0f141f"/>
      <stop offset="100%" stop-color="#06080c"/>
    </linearGradient>
    <linearGradient id="cyanGrad" x1="0%" y1="0%" x2="100%" y2="100%">
      <stop offset="0%" stop-color="#38bdf8"/>
      <stop offset="50%" stop-color="#00e5ff"/>
      <stop offset="100%" stop-color="#0284c7"/>
    </linearGradient>
    <linearGradient id="amberGrad" x1="0%" y1="0%" x2="100%" y2="100%">
      <stop offset="0%" stop-color="#fbbf24"/>
      <stop offset="100%" stop-color="#d97706"/>
    </linearGradient>
    <filter id="glow" x="-20%" y="-20%" width="140%" height="140%">
      <feGaussianBlur stdDeviation="8" result="blur"/>
      <feComposite in="SourceGraphic" in2="blur" operator="over"/>
    </filter>
  </defs>

  <!-- Background Base -->
  <rect width="512" height="512" rx="96" fill="url(#bgGrad)"/>
  <rect width="510" height="510" x="1" y="1" rx="95" fill="none" stroke="rgba(0, 229, 255, 0.25)" stroke-width="2"/>
  
  <!-- Subtle Tactical Tech Ring & Grid -->
  <circle cx="256" cy="256" r="215" fill="none" stroke="#1e293b" stroke-width="2" stroke-dasharray="8 8"/>
  <circle cx="256" cy="256" r="175" fill="none" stroke="rgba(0, 229, 255, 0.12)" stroke-width="1.5"/>
  <path d="M 256,24 L 256,54 M 256,458 L 256,488 M 24,256 L 54,256 M 458,256 L 488,256" stroke="rgba(0, 229, 255, 0.4)" stroke-width="3"/>

  <!-- Tactical Hex / Polygon Border -->
  <polygon points="256,56 436,160 436,368 256,472 76,368 76,160" fill="none" stroke="rgba(0, 229, 255, 0.2)" stroke-width="2"/>

  <!-- Rhodes Island Tactical Chevron (Main Prism) -->
  <g filter="url(#glow)">
    <!-- Outer Triangle -->
    <path d="M 256,108 L 392,344 L 120,344 Z" fill="url(#cyanGrad)"/>
    <!-- Inner Dark Cutout -->
    <path d="M 256,170 L 340,320 L 172,320 Z" fill="#0d1117"/>
    <!-- Inner Center Core Prism -->
    <polygon points="256,220 286,274 226,274" fill="url(#cyanGrad)"/>
    <polygon points="256,242 267,264 245,264" fill="#ffffff"/>
  </g>

  <!-- Amber Accent Diamond -->
  <polygon points="256,354 266,368 256,382 246,368" fill="url(#amberGrad)"/>

  <!-- Tactical Labels -->
  <text x="256" y="416" text-anchor="middle" font-family="-apple-system, BlinkMacSystemFont, 'Segoe UI', monospace" font-size="28" font-weight="900" letter-spacing="8" fill="#00e5ff">PRTS</text>
  <text x="256" y="438" text-anchor="middle" font-family="-apple-system, BlinkMacSystemFont, 'Segoe UI', monospace" font-size="12" font-weight="700" letter-spacing="3" fill="#64748b">TERMINAL // ARKCALC</text>
</svg>